<svg xmlns="http://www.w3.org/2000/svg" xmlns:xlink="http://www.w3.org/1999/xlink" version="1.1" x="0px" y="0px" viewBox="0 0 100 125" style="enable-background:new 0 0 100 100;" xml:space="preserve"><g><path d="M50,13.5c-4.4-2.7-9.5-4.1-14.9-4.1c-25.2,0-38,30.4-22.2,46.2l34.6,34.8c0,0,0,0,0,0c0.6,0.6,1.7,0.2,1.7-0.7c0,0,0,0,0,0   l0-32.3c3,1.6,6.6,1.5,9.5-0.2c5.2-3.2,4.5-8.9,4.6-9c-0.1,0-4.8-3.2-10.1,0c-1.9,1.2-3.3,3-4,5c-0.1-3.9,0.1-4-0.2-4.5   c2.8-1.7,4.6-4.8,4.6-8.1c0-6.1-5.2-8.5-5.3-8.6c-0.1,0.1-5.3,2.5-5.3,8.6c0,3.3,1.7,6.3,4.4,8c-0.5,0.5-0.2,0.4-0.2,10.2   c-0.6-1.6-1.6-3-3-4.1c-4.8-3.8-9.9-1.2-10-1.2c0,0.1-1.4,5.6,3.4,9.5c2.7,2.1,6.3,2.7,9.4,1.4l0.1,0l0,23l-32.9-33   c-5.2-5.2-5.6-10.6-6-11.9c0,0,0,0,0,0C5,19.3,30.3,3.5,49.5,15.5c0.3,0.2,0.7,0.2,1.1,0c17.1-10.7,42.7,0.2,41.2,26.2   c-0.4,7-3.8,11-3.8,11L54.4,86.2c-0.9,0.9,0.5,2.3,1.4,1.4L89.4,54c3.4-3.8,4.5-10.5,4.5-15.5C94,15.9,69.3,2,50,13.5z M61.3,49.3   c-0.3,5.3-5.8,8.6-10.6,6.5C51,50.5,56.5,47.1,61.3,49.3z M45.9,62.6c-2.4,0.7-5,0.2-6.9-1.3c-1.9-1.6-3-4-2.8-6.4   c2.4-0.7,5-0.2,6.9,1.3C45,57.7,46,60.2,45.9,62.6z M45.1,40.5c0-2.5,1.2-4.8,3.3-6.2c2,1.4,3.3,3.7,3.3,6.2s-1.2,4.8-3.3,6.2   C46.3,45.3,45.1,43,45.1,40.5z"/></g><text x="0" y="115" fill="#000000" font-size="5px" font-weight="bold" font-family="'Helvetica Neue', Helvetica, Arial-Unicode, Arial, Sans-serif">Created by prasong tadoungsorn</text><text x="0" y="120" fill="#000000" font-size="5px" font-weight="bold" font-family="'Helvetica Neue', Helvetica, Arial-Unicode, Arial, Sans-serif">from the Noun Project</text></svg>